<svg xmlns="http://www.w3.org/2000/svg" xmlns:xlink="http://www.w3.org/1999/xlink" version="1.1" width="426.66667673322854" height="192.66667554113565" xml:space="preserve" style=""><rect id="backgroundrect" width="100%" height="100%" x="0" y="0" fill="none" stroke="none" class="selected" style=""/>
<desc>Created with Fabric.js 4.2.0</desc>
<defs>
</defs>




<g class="currentLayer" style=""><title>Layer 1</title><g id="88ad4699-a992-4bf6-bfef-d743e2ea02a3">
</g><g id="svg_3" class="">
<g style="opacity: 1;" vector-effect="non-scaling-stroke" stroke-width="0" id="svg_4">
		<g id="path6" stroke-width="0">
<path style="stroke: none; stroke-width: 1; stroke-dasharray: none; stroke-linecap: butt; stroke-dashoffset: 0; stroke-linejoin: miter; stroke-miterlimit: 4; fill: rgb(255,255,255); fill-rule: nonzero; opacity: 1;" vector-effect="non-scaling-stroke" d="M362.92056547012317,110.51673969216392 L334.3652707810638,101.82452208085107 C316.0605946983335,95.50290927262347 303.61341496207694,76.53807084794084 303.61341496207694,55.99282922120136 C303.61341496207694,29.125974786234394 323.38246513142576,7.000329957437941 349.00901164724814,7.000329957437941 L405.3874139820574,7.000329957437941 L405.3874139820574,28.335773185205937 L365.84931364336,28.335773185205937 C358.52744321026773,28.335773185205937 351.937759820485,34.65738599343342 351.937759820485,43.349603604746335 C351.937759820485,48.88101481194542 355.598695037031,55.20262762017296 361.4561913835046,56.783030822229875 L389.27929902925473,67.05565163559959 C408.31616215529414,73.37726444382713 418.56678076162314,93.92250607056667 418.56678076162314,117.62855410141987 C418.56678076162314,147.65621494050072 395.8689824190376,172.15246457238243 368.04587477328744,172.15246457238243 L308.73872426524133,172.15246457238243 L308.73872426524133,147.65621494050072 L359.9918172968861,147.65621494050072 C367.31368772997837,147.65621494050072 376.0999322496889,139.75419893021632 376.0999322496889,128.6913765158181 C374.63555816307064,119.99915890450524 370.2424359032152,112.8873444952493 362.92056547012317,110.51673969216392 " stroke-linecap="round" stroke-width="0" id="svg_5"/>
</g>
		<g id="path8" stroke-width="0">
<path style="stroke: none; stroke-width: 1; stroke-dasharray: none; stroke-linecap: butt; stroke-dashoffset: 0; stroke-linejoin: miter; stroke-miterlimit: 4; fill: rgb(255,255,255); fill-rule: nonzero; opacity: 1;" vector-effect="non-scaling-stroke" d="M225.26942367256675,172.15246607957238 C191.58881968034302,172.15246607957238 165.96227316452064,146.8660148466622 165.96227316452064,115.25795080552456 L165.96227316452064,6.210129863599548 L210.62568280638243,6.210129863599548 L210.62568280638243,118.41875720963827 C210.62568280638243,132.64238602815033 222.3406754993298,143.70520844254844 236.98441636551405,143.70520844254844 C250.89597018838913,143.70520844254844 263.34314992464556,132.64238602815033 263.34314992464556,118.41875720963827 L263.34314992464556,6.210129863599548 L284.57657418061285,6.210129863599548 L284.57657418061285,114.4677492044961 C283.84438713730356,146.07581324563387 257.4856535781721,172.15246607957238 225.26942367256675,172.15246607957238 " stroke-linecap="round" stroke-width="0" id="svg_6"/>
</g>
		<g id="path12" stroke-width="0">
<path style="stroke: none; stroke-width: 1; stroke-dasharray: none; stroke-linecap: butt; stroke-dashoffset: 0; stroke-linejoin: miter; stroke-miterlimit: 4; fill: rgb(255,255,255); fill-rule: nonzero; opacity: 1;" vector-effect="non-scaling-stroke" d="M105.9229579577405,24.38476518006371 C102.99420978450365,14.902345967722397 94.94015230810237,7.790531558466455 84.68953370177337,7.000329957437941 L84.68953370177337,7.000329957437941 L76.63547622537203,7.000329957437941 L76.63547622537203,7.000329957437941 C67.84923170566151,7.000329957437941 59.06298718595099,12.531741164637083 56.86642605602327,21.22395877594994 L6.345520067687687,172.15246457238243 L37.82956292998381,172.15246457238243 L49.54455562293117,136.5933925261026 L110.31608021759575,136.5933925261026 L121.29888586723388,172.15246457238243 L154.24730281614848,172.15246457238243 zM57.598613099332624,110.51673969216392 L80.29641144191811,40.188797200632564 L101.52983569788535,110.51673969216392 z" stroke-linecap="round" stroke-width="0" id="svg_7"/>
</g>
</g>
</g></g></svg>